<svg width="207" height="244" viewBox="0 0 207 244" fill="none" xmlns="http://www.w3.org/2000/svg">
<path d="M116 159C116 159 88 188 65.5 192C58.4103 193.26 52.8358 192.836 47.5 188C34.2586 176 21.2528 160.635 16.5 139.5C13.6297 126.736 16.5 108.5 16.5 108.5C16.5 108.5 13.4739 92.0762 14 81.5C15.2994 55.3803 20.7614 37.1556 40.5 20C60.4836 2.63152 81.9445 -1.20297 108 3.5C130.345 7.5332 143.086 13.9882 155.5 33C166.786 50.2849 167.335 64.4892 165 85C162.694 105.252 149.626 113.272 144.5 133C138.685 155.38 136.967 176.638 144.5 198.5C152.373 221.348 160.416 226.687 182.5 236.5C191.202 240.367 196.548 241.845 206 243" stroke="#141412" strokeWidth="2"/>
<path d="M65 193C65 193 53.0609 221.537 37.5 231.5C25.053 239.469 1 241.5 1 241.5" stroke="#141412" strokeWidth="2"/>
<path d="M121 99C121 99 129.133 90.6124 134.5 93C139.287 95.1297 141.677 98.3257 142.5 103.5C143.723 111.185 141.273 118.497 137 125C133.816 129.847 131.5 131 126.5 134C123.821 135.607 120.512 136.331 117.5 135.5" stroke="#141412" strokeWidth="2"/>
<circle cx="123.5" cy="127.5" r="2.5" fill="#161614"/>
</svg>
