<svg width="372" height="432" viewBox="0 0 372 432" fill="none" xmlns="http://www.w3.org/2000/svg">
<path d="M208.561 280.917C208.561 280.917 158.024 332.507 117.415 339.623C104.619 341.865 94.5573 341.109 84.9268 332.507C61.0278 311.16 37.5539 283.826 28.9756 246.228C23.795 223.522 28.9756 191.08 28.9756 191.08C28.9756 191.08 23.5138 161.863 24.4634 143.049C26.8086 96.5829 36.6669 64.162 72.2927 33.643C108.361 2.74522 147.095 -4.07616 194.122 4.29021C234.452 11.4651 257.448 22.9482 279.854 56.7694C300.224 87.5183 301.215 112.787 297 149.275C292.838 185.303 269.252 199.569 260 234.665C249.504 274.478 246.403 312.295 260 351.186C274.21 391.831 288.727 401.329 328.585 418.786C344.291 425.665 353.941 428.296 371 430.35" stroke="#141412" stroke-width="2"/>
<path d="M116.512 341.402C116.512 341.402 94.9635 392.169 66.878 409.892C44.4127 424.068 1 427.681 1 427.681" stroke="#141412" stroke-width="2"/>
<path d="M217.585 174.18C217.585 174.18 232.264 159.259 241.951 163.507C250.591 167.295 254.904 172.981 256.39 182.186C258.597 195.856 254.175 208.864 246.463 220.433C240.716 229.055 236.537 231.107 227.512 236.444C222.677 239.303 216.704 240.59 211.268 239.112" stroke="#141412" stroke-width="2"/>
<ellipse cx="222.098" cy="224.88" rx="4.5122" ry="4.44738" fill="#161614"/>
</svg>
