<svg width="602" height="319" viewBox="0 0 602 319" fill="none" xmlns="http://www.w3.org/2000/svg">
<path d="M1 170.063C1 170.063 198 115.563 311 91.5629C321.5 89.3328 376.133 25.3973 430.5 10.0629C455.512 3.00821 472.5 -0.437159 496.5 1.56288C506.964 2.43487 513.5 12.0628 516.5 19.0628L517.5 21.0628M20 318.063C20 318.063 212.206 234.169 346 208.063C407.5 196.063 491 220.063 532.5 208.063C550 203.003 553.921 202.26 564.5 192.563C576.5 181.563 589.752 179.749 596 175.063C604.5 168.688 600 160.563 590 156.563C580 152.563 558 156.563 558 156.563C558 156.563 536.5 164.563 530 166.063C523.5 167.563 495 170.063 495 161.563C495 153.063 538.5 141.563 561.5 131.063C574.431 125.159 586.5 106.563 579 91.5628C576.48 86.5222 568.708 84.0357 559.5 84.0628M517.5 91.5628C517.5 91.5628 541.306 84.1165 559.5 84.0628M559.5 84.0628C559.5 84.0628 566.746 71.3933 563.5 63.5628C559.818 54.6801 544.5 52.5628 544.5 52.5628M544.5 52.5628H485.5M544.5 52.5628C544.5 52.5628 550.456 42.076 549.5 35.0628C548.527 27.9279 543 22.0628 537.5 21.0628C532 20.0628 517.5 21.0628 517.5 21.0628M471.5 21.0628H517.5" stroke="#11110F" stroke-width="2"/>
</svg>
