<?xml version="1.0" standalone="no"?>
        <!DOCTYPE svg PUBLIC "-//W3C//DTD SVG 1.1//EN" 
        "http://www.w3.org/Graphics/SVG/1.1/DTD/svg11.dtd"><svg width="20" height="23" viewBox="0 0 20 23"><g transform="translate(0 0)"><path d="M19.425-64.075a2.139,2.139,0,0,0,1.134-.381l7.712-4.719c.71-.447,1-.789,1-1.314s-.287-.868-1-1.3L20.559-76.51a2.169,2.169,0,0,0-1.134-.394,2.169,2.169,0,0,0-1.134.394l-7.712,4.719c-.71.434-1,.776-1,1.3s.287.868,1,1.314l7.712,4.719A2.139,2.139,0,0,0,19.425-64.075Zm0-1.577a.976.976,0,0,1-.411-.131l-7.55-4.574a.137.137,0,0,1-.1-.131c0-.066.037-.092.1-.131l7.55-4.561a.854.854,0,0,1,.411-.145.777.777,0,0,1,.411.145l7.55,4.561c.062.039.1.066.1.131a.137.137,0,0,1-.1.131l-7.55,4.574A.881.881,0,0,1,19.425-65.652Zm0,6.678a1.885,1.885,0,0,0,.984-.394l8.385-5.192a.984.984,0,0,0,.486-.815.939.939,0,0,0-.473-.8l-9.02,5.494a.756.756,0,0,1-.361.131.757.757,0,0,1-.361-.131l-9.008-5.494a.924.924,0,0,0-.486.8,1,1,0,0,0,.486.815l8.385,5.192A1.925,1.925,0,0,0,19.425-58.975Zm0,4.811a1.81,1.81,0,0,0,.984-.407l8.385-5.192a.968.968,0,0,0,.486-.815.958.958,0,0,0-.473-.8l-9.02,5.495a.756.756,0,0,1-.361.131.756.756,0,0,1-.361-.131L10.056-61.38a.941.941,0,0,0-.486.8,1,1,0,0,0,.486.815l8.385,5.192A1.847,1.847,0,0,0,19.425-54.164Z" transform="translate(-9.57 76.904)"></path></g></svg>